<svg height="24" viewBox="0 0 24 24" width="24" xmlns="http://www.w3.org/2000/svg"><path d="m5.57403651 0c-.95902637 0-1.72819473.75359026-1.72819473 1.67951318v5.74442191h-2.11764705c-.95902636-.00000023-1.72819473.75651116-1.72819473 1.67951319v12.43813392c0 .9259236.76916836 1.6795131 1.72819473 1.6795131h12.85192697c.9590264-.0000007 1.7525355-.7535902 1.7525355-1.6795131v-2.0446248h5.9391481c.9580527.0000008 1.7281947-.7565112 1.7281947-1.6795132v-12.43813386c0-.92397573-.770142-1.65517241-1.7281947-1.65517241h-2.1176471v-2.04462475c0-.92592289-.7711156-1.67951318-1.7281947-1.67951318zm0 .94929006h12.85192699c.4196341.00000008.7545639.32324544.7545639.73022312v2.04462475h-9.7606491c-.95707911-.00000008-1.7525355.73119676-1.7525355 1.65517241v2.04462475h-2.84787018v-5.74442191c-.00000016-.40697768.33200811-.73022312.75456389-.73022312zm3.84584179 3.69979716h9.7606491v9.44421908c0 .4069785-.334929.7545639-.7545639.7545639h-2.0933063v-5.74442192c.0000008-.92300203-.7935091-1.67951319-1.7525355-1.67951319h-5.93914807v-2.04462475c0-.40600413.35926978-.73022312.77890467-.73022312zm10.7342799 0h2.1176471c.4206085-.00000015.7545639.32421907.7545639.73022312v12.43813386c0 .4060041-.3339554.7302231-.7545639.7302231h-5.9391481v-2.7505071h2.0933063c.9570783-.0000007 1.7281947-.777931 1.7281947-1.7038539zm-18.42596347 3.72413793h2.11764705v5.72008115c0 .9259237.76916836 1.7038539 1.72819473 1.7038539h2.09330629v2.020284c.00000015.923002.79545639 1.6795132 1.7525355 1.6795132h5.9391481v2.0446248c.0000007.4060048-.3563489.7302231-.7789047.7302231h-12.85192697c-.42547668-.0000008-.7545639-.3242191-.7545639-.7302231v-12.43813392c.00000008-.40503043.32908722-.73022313.7545639-.73022313zm3.09127789 0h2.84787018v6.47464505h-2.09330629c-.42255578 0-.75456389-.3475862-.75456389-.7545639zm3.82150101 0h5.93914807c.4225558 0 .7789047.3251927.7789047.73022313v5.74442192h-6.71805277zm0 7.42393505h6.71805277v2.7505071h-5.9391481c-.41963489 0-.77890467-.324219-.77890467-.7302231z" fill="#879ac3" fill-rule="evenodd"/></svg>